<svg width="32" height="32" viewBox="0 0 32 32" fill="none" xmlns="http://www.w3.org/2000/svg">
<mask id="path-1-inside-1_1_95" fill="white">
<path fill-rule="evenodd" clip-rule="evenodd" d="M16 25C22.6274 25 28 19.6274 28 13C28 6.37258 22.6274 1 16 1C9.37258 1 4 6.37258 4 13C4 19.6274 9.37258 25 16 25ZM16 23C21.5228 23 26 18.5228 26 13C26 7.47715 21.5228 3 16 3C10.4772 3 6 7.47715 6 13C6 18.5228 10.4772 23 16 23Z"/>
</mask>
<path fill-rule="evenodd" clip-rule="evenodd" d="M16 25C22.6274 25 28 19.6274 28 13C28 6.37258 22.6274 1 16 1C9.37258 1 4 6.37258 4 13C4 19.6274 9.37258 25 16 25ZM16 23C21.5228 23 26 18.5228 26 13C26 7.47715 21.5228 3 16 3C10.4772 3 6 7.47715 6 13C6 18.5228 10.4772 23 16 23Z" fill="#FF6AC4"/>
<path d="M27 13C27 19.0751 22.0751 24 16 24V26C23.1797 26 29 20.1797 29 13H27ZM16 2C22.0751 2 27 6.92487 27 13H29C29 5.8203 23.1797 0 16 0V2ZM5 13C5 6.92487 9.92487 2 16 2V0C8.8203 0 3 5.8203 3 13H5ZM16 24C9.92487 24 5 19.0751 5 13H3C3 20.1797 8.8203 26 16 26V24ZM25 13C25 17.9706 20.9706 22 16 22V24C22.0751 24 27 19.0751 27 13H25ZM16 4C20.9706 4 25 8.02944 25 13H27C27 6.92487 22.0751 2 16 2V4ZM7 13C7 8.02944 11.0294 4 16 4V2C9.92487 2 5 6.92487 5 13H7ZM16 22C11.0294 22 7 17.9706 7 13H5C5 19.0751 9.92487 24 16 24V22Z" fill="#FF6AC4" mask="url(#path-1-inside-1_1_95)"/>
<circle cx="6" cy="28" r="1.5" fill="#FF6AC4" stroke="#FF6AC4"/>
<circle cx="26" cy="28" r="1.5" fill="#FF6AC4" stroke="#FF6AC4"/>
<mask id="path-5-inside-2_1_95" fill="white">
<path fill-rule="evenodd" clip-rule="evenodd" d="M19.4518 20.954C19.4622 21.1258 19.6391 21.2357 19.7951 21.1631C22.8692 19.7315 25 16.6146 25 13C25 8.02944 20.9706 4 16 4C11.0294 4 7 8.02944 7 13C7 16.6146 9.13083 19.7315 12.2049 21.1631C12.3609 21.2357 12.5378 21.1258 12.5482 20.954L12.6524 19.2349C12.6604 19.1029 12.7698 19 12.902 19H14.75C14.8881 19 15 18.8881 15 18.75V17.0678C15 16.9537 14.9225 16.8549 14.8135 16.8211C13.1837 16.3156 12 14.796 12 13C12 10.7909 13.7909 9 16 9C18.2091 9 20 10.7909 20 13C20 14.796 18.8163 16.3156 17.1865 16.8211C17.0775 16.8549 17 16.9537 17 17.0678V18.75C17 18.8881 17.1119 19 17.25 19H19.098C19.2302 19 19.3396 19.1029 19.3476 19.2349L19.4518 20.954Z"/>
</mask>
<path fill-rule="evenodd" clip-rule="evenodd" d="M19.4518 20.954C19.4622 21.1258 19.6391 21.2357 19.7951 21.1631C22.8692 19.7315 25 16.6146 25 13C25 8.02944 20.9706 4 16 4C11.0294 4 7 8.02944 7 13C7 16.6146 9.13083 19.7315 12.2049 21.1631C12.3609 21.2357 12.5378 21.1258 12.5482 20.954L12.6524 19.2349C12.6604 19.1029 12.7698 19 12.902 19H14.75C14.8881 19 15 18.8881 15 18.75V17.0678C15 16.9537 14.9225 16.8549 14.8135 16.8211C13.1837 16.3156 12 14.796 12 13C12 10.7909 13.7909 9 16 9C18.2091 9 20 10.7909 20 13C20 14.796 18.8163 16.3156 17.1865 16.8211C17.0775 16.8549 17 16.9537 17 17.0678V18.75C17 18.8881 17.1119 19 17.25 19H19.098C19.2302 19 19.3396 19.1029 19.3476 19.2349L19.4518 20.954Z" fill="#FF6AC4"/>
<path d="M19.3476 19.2349L18.3494 19.2954L19.3476 19.2349ZM17.1865 16.8211L16.8902 15.866L17.1865 16.8211ZM14.8135 16.8211L15.1098 15.866L14.8135 16.8211ZM12.6524 19.2349L11.6543 19.1744L12.6524 19.2349ZM12.2049 21.1631L11.7827 22.0696L12.2049 21.1631ZM12.5482 20.954L11.5501 20.8935L12.5482 20.954ZM19.7951 21.1631L20.2173 22.0696L19.7951 21.1631ZM19.4518 20.954L20.4499 20.8935L19.4518 20.954ZM24 13C24 16.2114 22.1077 18.983 19.373 20.2566L20.2173 22.0696C23.6306 20.48 26 17.0177 26 13H24ZM16 5C20.4183 5 24 8.58172 24 13H26C26 7.47715 21.5228 3 16 3V5ZM8 13C8 8.58172 11.5817 5 16 5V3C10.4772 3 6 7.47715 6 13H8ZM12.627 20.2566C9.89229 18.983 8 16.2114 8 13H6C6 17.0177 8.36938 20.48 11.7827 22.0696L12.627 20.2566ZM11.6543 19.1744L11.5501 20.8935L13.5464 21.0145L13.6506 19.2954L11.6543 19.1744ZM14.75 18H12.902V20H14.75V18ZM14 17.0678V18.75H16V17.0678H14ZM15.1098 15.866C13.8865 15.4866 13 14.3455 13 13H11C11 15.2465 12.4809 17.1446 14.5173 17.7762L15.1098 15.866ZM13 13C13 11.3431 14.3431 10 16 10V8C13.2386 8 11 10.2386 11 13H13ZM16 10C17.6569 10 19 11.3431 19 13H21C21 10.2386 18.7614 8 16 8V10ZM19 13C19 14.3455 18.1135 15.4866 16.8902 15.866L17.4827 17.7762C19.5191 17.1446 21 15.2465 21 13H19ZM18 18.75V17.0678H16V18.75H18ZM19.098 18H17.25V20H19.098V18ZM20.4499 20.8935L20.3457 19.1744L18.3494 19.2954L18.4536 21.0145L20.4499 20.8935ZM19.098 20C18.7014 20 18.3734 19.6912 18.3494 19.2954L20.3457 19.1744C20.3058 18.5146 19.759 18 19.098 18V20ZM16.8902 15.866C16.3908 16.0209 16 16.4869 16 17.0678H18C18 17.4205 17.7643 17.6889 17.4827 17.7762L16.8902 15.866ZM16 17.0678C16 16.4869 15.6092 16.0209 15.1098 15.866L14.5173 17.7762C14.2357 17.6889 14 17.4205 14 17.0678H16ZM13.6506 19.2954C13.6266 19.6912 13.2986 20 12.902 20V18C12.241 18 11.6942 18.5146 11.6543 19.1744L13.6506 19.2954ZM11.7827 22.0696C12.6056 22.4528 13.4952 21.8596 13.5464 21.0145L11.5501 20.8935C11.5805 20.392 12.1162 20.0187 12.627 20.2566L11.7827 22.0696ZM14.75 20C15.4404 20 16 19.4404 16 18.75H14C14 18.3358 14.3358 18 14.75 18V20ZM16 18.75C16 19.4404 16.5596 20 17.25 20V18C17.6642 18 18 18.3358 18 18.75H16ZM19.373 20.2566C19.8838 20.0187 20.4195 20.3919 20.4499 20.8935L18.4536 21.0145C18.5048 21.8596 19.3944 22.4528 20.2173 22.0696L19.373 20.2566Z" fill="#FF6AC4" mask="url(#path-5-inside-2_1_95)"/>
<path d="M5.99995 28L9 21" stroke="#FF6AC4"/>
<path d="M26 28L23 21" stroke="#FF6AC4"/>
<path d="M16 20.5H18.0244L18.4744 29.5H13.5256L13.9756 20.5H16Z" fill="#FF6AC4" stroke="#FF6AC4"/>
<mask id="path-10-inside-3_1_95" fill="white">
<path d="M15.5 13H16.5V20H15.5V13Z"/>
</mask>
<path d="M15.5 13H16.5V20H15.5V13Z" fill="#FF6AC4"/>
<path d="M15.5 13V12H14.5V13H15.5ZM16.5 13H17.5V12H16.5V13ZM16.5 20V21H17.5V20H16.5ZM15.5 20H14.5V21H15.5V20ZM15.5 14H16.5V12H15.5V14ZM15.5 13V20H17.5V13H15.5ZM16.5 19H15.5V21H16.5V19ZM16.5 20V13H14.5V20H16.5Z" fill="#FF6AC4" mask="url(#path-10-inside-3_1_95)"/>
<circle cx="16" cy="13" r="2.5" fill="#FF6AC4" stroke="#FF6AC4"/>
</svg>
