<svg width="32" height="32" viewBox="0 0 32 32" fill="none" xmlns="http://www.w3.org/2000/svg">
<mask id="path-1-inside-1_1_2" fill="white">
<path fill-rule="evenodd" clip-rule="evenodd" d="M16 25C22.6274 25 28 19.6274 28 13C28 6.37258 22.6274 1 16 1C9.37258 1 4 6.37258 4 13C4 19.6274 9.37258 25 16 25ZM16 23C21.5228 23 26 18.5228 26 13C26 7.47715 21.5228 3 16 3C10.4772 3 6 7.47715 6 13C6 18.5228 10.4772 23 16 23Z"/>
</mask>
<path fill-rule="evenodd" clip-rule="evenodd" d="M16 25C22.6274 25 28 19.6274 28 13C28 6.37258 22.6274 1 16 1C9.37258 1 4 6.37258 4 13C4 19.6274 9.37258 25 16 25ZM16 23C21.5228 23 26 18.5228 26 13C26 7.47715 21.5228 3 16 3C10.4772 3 6 7.47715 6 13C6 18.5228 10.4772 23 16 23Z" fill="#FF6AC4"/>
<path d="M27 13C27 19.0751 22.0751 24 16 24V26C23.1797 26 29 20.1797 29 13H27ZM16 2C22.0751 2 27 6.92487 27 13H29C29 5.8203 23.1797 0 16 0V2ZM5 13C5 6.92487 9.92487 2 16 2V0C8.8203 0 3 5.8203 3 13H5ZM16 24C9.92487 24 5 19.0751 5 13H3C3 20.1797 8.8203 26 16 26V24ZM25 13C25 17.9706 20.9706 22 16 22V24C22.0751 24 27 19.0751 27 13H25ZM16 4C20.9706 4 25 8.02944 25 13H27C27 6.92487 22.0751 2 16 2V4ZM7 13C7 8.02944 11.0294 4 16 4V2C9.92487 2 5 6.92487 5 13H7ZM16 22C11.0294 22 7 17.9706 7 13H5C5 19.0751 9.92487 24 16 24V22Z" fill="#FF6AC4" mask="url(#path-1-inside-1_1_2)"/>
<circle cx="6" cy="28" r="1.5" fill="#FF6AC4" stroke="#FF6AC4"/>
<circle cx="26" cy="28" r="1.5" fill="#FF6AC4" stroke="#FF6AC4"/>
<path d="M16 20.5H18.0244L18.4744 29.5H13.5256L13.9756 20.5H16Z" fill="#FF6AC4" stroke="#FF6AC4"/>
<mask id="path-6-inside-2_1_2" fill="white">
<path d="M15.5 13H16.5V20H15.5V13Z"/>
</mask>
<path d="M15.5 13H16.5V20H15.5V13Z" fill="#FF6AC4"/>
<path d="M15.5 13V12H14.5V13H15.5ZM16.5 13H17.5V12H16.5V13ZM16.5 20V21H17.5V20H16.5ZM15.5 20H14.5V21H15.5V20ZM15.5 14H16.5V12H15.5V14ZM15.5 13V20H17.5V13H15.5ZM16.5 19H15.5V21H16.5V19ZM16.5 20V13H14.5V20H16.5Z" fill="#FF6AC4" mask="url(#path-6-inside-2_1_2)"/>
<circle cx="16" cy="13" r="2.5" fill="#FF6AC4" stroke="#FF6AC4"/>
<path d="M5.99995 28L9 21" stroke="#FF6AC4"/>
<path d="M26 28L23 21" stroke="#FF6AC4"/>
</svg>
