<svg width="32" height="32" viewBox="0 0 32 32" fill="none" xmlns="http://www.w3.org/2000/svg">
<path fill-rule="evenodd" clip-rule="evenodd" d="M27.5078 18.5C25.3305 19.771 20.9941 20.6375 16 20.6375C11.0059 20.6375 6.6695 19.771 4.4922 18.5C4.17192 18.8606 4 19.2424 4 19.6375C4 21.8467 9.37258 23.6375 16 23.6375C22.6274 23.6375 28 21.8467 28 19.6375C28 19.2424 27.8281 18.8606 27.5078 18.5Z" fill="#41D7CE"/>
<path fill-rule="evenodd" clip-rule="evenodd" d="M22.4672 13.0866C22.8189 13.6932 23 14.3434 23 15H16H9C9 14.3434 9.18106 13.6932 9.53284 13.0866C9.63848 12.9044 9.75888 12.7273 9.89326 12.556C6.3654 13.2525 4 14.5342 4 16C4 18.2092 9.37258 20 16 20C22.6274 20 28 18.2092 28 16C28 14.5342 25.6346 13.2525 22.1067 12.556C22.2411 12.7273 22.3615 12.9044 22.4672 13.0866Z" fill="#41D7CE"/>
<path d="M22 15C22 14.3434 21.8448 13.6932 21.5433 13.0866C21.2417 12.48 20.7998 11.9288 20.2426 11.4645C19.6855 11.0002 19.0241 10.6319 18.2961 10.3806C17.5681 10.1293 16.7879 10 16 10C15.2121 10 14.4319 10.1293 13.7039 10.3806C12.9759 10.6319 12.3145 11.0002 11.7574 11.4645C11.2002 11.9288 10.7583 12.48 10.4567 13.0866C10.1552 13.6932 10 14.3434 10 15L16 15H22Z" fill="#41D7CE"/>
<path d="M15.5 4H16.5V11H15.5V4Z" fill="#41D7CE"/>
</svg>
