<svg width="32" height="32" viewBox="0 0 32 32" fill="none" xmlns="http://www.w3.org/2000/svg">
<path fill-rule="evenodd" clip-rule="evenodd" d="M21.4929 11.0188C21.649 10.9909 21.7402 10.8263 21.6669 10.6857C21.4147 10.2023 21.0264 9.7572 20.5253 9.37352C25.474 10.2217 29 12.4208 29 15C29 18.3137 23.1797 21 16 21C8.8203 21 3 18.3137 3 15C3 12.4208 6.52604 10.2217 11.4747 9.37352C10.9736 9.7572 10.5853 10.2023 10.3331 10.6857C10.2598 10.8263 10.351 10.9909 10.5071 11.0188L11.8279 11.2547C11.9444 11.2755 12.0583 11.211 12.1128 11.1058C12.375 10.599 12.8554 10.1532 13.4967 9.82508C14.2149 9.4577 15.0948 9.25858 16 9.25858C16.9052 9.25858 17.7851 9.45771 18.5033 9.82508C19.1446 10.1532 19.625 10.599 19.8872 11.1058C19.9417 11.211 20.0556 11.2755 20.1721 11.2547L21.4929 11.0188ZM16 12C16.5523 12 17 11.5523 17 11C17 10.4477 16.5523 10 16 10C15.4477 10 15 10.4477 15 11C15 11.5523 15.4477 12 16 12Z" fill="#41D7CE"/>
</svg>
