<svg width="32" height="32" viewBox="0 0 32 32" fill="none" xmlns="http://www.w3.org/2000/svg">
<path fill-rule="evenodd" clip-rule="evenodd" d="M16 14.1605C23.1797 14.1605 29 12.3337 29 10.0802C29 7.82678 23.1797 6 16 6C8.8203 6 3 7.82678 3 10.0802C3 12.3337 8.8203 14.1605 16 14.1605ZM16 12.8004C22.154 12.8004 27.1429 11.5825 27.1429 10.0802C27.1429 8.57794 22.154 7.36008 16 7.36008C9.84597 7.36008 4.85715 8.57794 4.85715 10.0802C4.85715 11.5825 9.84597 12.8004 16 12.8004Z" fill="#FFB931"/>
<path fill-rule="evenodd" clip-rule="evenodd" d="M3.14498 23.4609C2.40828 23.9432 2 24.4752 2 25.0342C2 27.2244 8.26801 29 16 29C23.732 29 30 27.2244 30 25.0342C30 24.4752 29.5917 23.9432 28.855 23.4608C28.1871 25.4587 22.6866 27.0171 16 27.0171C9.3134 27.0171 3.81291 25.4587 3.14498 23.4609Z" fill="#FFB931"/>
<path fill-rule="evenodd" clip-rule="evenodd" d="M27.5918 13.0365C27.1547 13.289 26.6193 13.5253 26 13.7411V17.0854C26.5826 17.2913 27 17.8469 27 18.5C27 19.1531 26.5826 19.7087 26 19.9146V24.4268C27.2637 23.8681 28 23.1975 28 22.4762V13.2606C28 13.0574 27.7678 12.9348 27.5918 13.0365ZM25 14.0517V17.0854C24.4174 17.2913 24 17.8469 24 18.5C24 19.1531 24.4174 19.7087 25 19.9146V24.8095C23.6616 25.2553 21.946 25.6008 20 25.803V21.9146C20.5826 21.7087 21 21.1531 21 20.5C21 19.8469 20.5826 19.2913 20 19.0854V14.9138C21.8971 14.7376 23.6015 14.4394 25 14.0517ZM19 19.0854V14.994C18.0373 15.0594 17.0328 15.094 16 15.094C14.9672 15.094 13.9628 15.0594 13 14.994V19.0854C13.5826 19.2913 14 19.8469 14 20.5C14 21.1531 13.5826 21.7087 13 21.9146V25.8926C13.9589 25.9652 14.9641 26.0038 16 26.0038C17.0359 26.0038 18.0411 25.9652 19 25.8926V21.9146C18.4174 21.7087 18 21.1531 18 20.5C18 19.8469 18.4174 19.2913 19 19.0854ZM12 25.803V21.9146C11.4174 21.7087 11 21.1531 11 20.5C11 19.8469 11.4174 19.2913 12 19.0854V14.9138C10.1029 14.7376 8.39845 14.4394 7 14.0517V17.0854C7.5826 17.2913 8 17.8469 8 18.5C8 19.1531 7.5826 19.7087 7 19.9146V24.8095C8.33838 25.2553 10.054 25.6008 12 25.803ZM6 19.9146V24.4268C4.73631 23.8681 4.00001 23.1975 4 22.4762V13.2606C4 13.0574 4.23225 12.9348 4.4082 13.0364C4.84534 13.289 5.38069 13.5253 6 13.7411V17.0854C5.4174 17.2913 5 17.8469 5 18.5C5 19.1531 5.4174 19.7087 6 19.9146Z" fill="#FFB931"/>
</svg>
