<svg width="32" height="32" viewBox="0 0 32 32" fill="none" xmlns="http://www.w3.org/2000/svg">
<path fill-rule="evenodd" clip-rule="evenodd" d="M16 14C23.1797 14 29 11.5376 29 8.5C29 5.46243 23.1797 3 16 3C8.8203 3 3 5.46243 3 8.5C3 11.5376 8.8203 14 16 14ZM16 12.1667C22.154 12.1667 27.1429 10.525 27.1429 8.5C27.1429 6.47496 22.154 4.83333 16 4.83333C9.84597 4.83333 4.85715 6.47496 4.85715 8.5C4.85715 10.525 9.84597 12.1667 16 12.1667Z" fill="#5EDD22"/>
<ellipse cx="16" cy="8.5" rx="10" ry="2.5" fill="#5EDD22"/>
<path fill-rule="evenodd" clip-rule="evenodd" d="M3.14499 24C2.40829 24.5736 2 25.2062 2 25.871C2 28.4755 8.26801 30.5869 16 30.5869C23.732 30.5869 30 28.4755 30 25.871C30 25.2062 29.5917 24.5736 28.855 24C28.1871 26.3757 22.6866 28.2289 16 28.2289C9.3134 28.2289 3.81292 26.3757 3.14499 24Z" fill="#5EDD22"/>
<path fill-rule="evenodd" clip-rule="evenodd" d="M16.5 14.8641C18.89 14.8347 21.1137 14.595 23 14.2006V17.9882C23 18.1262 23.1119 18.2382 23.25 18.2382H23.75C23.8881 18.2382 24 18.1262 24 17.9882V13.969C25.4937 13.5872 26.7209 13.1009 27.5765 12.5441C27.7526 12.4294 28 12.5514 28 12.7616V23.2381C28 24.4228 26.455 25.4872 24 26.2196V22.4882C24 22.3501 23.8881 22.2382 23.75 22.2382H23.25C23.1119 22.2382 23 22.3501 23 22.4882V26.4874C21.1561 26.9296 18.9205 27.2017 16.5 27.2347V23.4882C16.5 23.3501 16.3881 23.2382 16.25 23.2382H15.75C15.6119 23.2382 15.5 23.3501 15.5 23.4882V27.2347C13.0795 27.2017 10.8439 26.9296 9 26.4874V22.4882C9 22.3501 8.88807 22.2382 8.75 22.2382H8.25C8.11193 22.2382 8 22.3501 8 22.4882V26.2196C5.54501 25.4872 4.00001 24.4228 4 23.2381V12.7616C4 12.5514 4.24737 12.4294 4.42354 12.5441C5.27909 13.1008 6.50631 13.5872 8 13.969V17.9882C8 18.1262 8.11193 18.2382 8.25 18.2382H8.75C8.88807 18.2382 9 18.1262 9 17.9882V14.2006C10.8863 14.595 13.11 14.8347 15.5 14.8641V18.9882C15.5 19.1262 15.6119 19.2382 15.75 19.2382H16.25C16.3881 19.2382 16.5 19.1262 16.5 18.9882V14.8641Z" fill="#5EDD22"/>
</svg>
