<svg width="32" height="32" viewBox="0 0 32 32" fill="none" xmlns="http://www.w3.org/2000/svg">
<path fill-rule="evenodd" clip-rule="evenodd" d="M10.7262 13C10.5978 13 10.4903 13.0973 10.4775 13.2251L9.02748 27.7251C9.01276 27.8723 9.12833 28 9.27624 28H22.7237C22.8717 28 22.9872 27.8723 22.9725 27.7251L21.5225 13.2251C21.5097 13.0973 21.4022 13 21.2737 13H10.7262ZM11.5122 14C11.3837 14 11.2761 14.0975 11.2634 14.2254L10.0272 26.7254C10.0126 26.8725 10.1281 27 10.2759 27H21.724C21.8718 27 21.9874 26.8725 21.9728 26.7254L20.7366 14.2254C20.7239 14.0975 20.6163 14 20.4878 14H11.5122Z" fill="#D49DFF"/>
<path fill-rule="evenodd" clip-rule="evenodd" d="M16 5C18.7614 5 21 6.07452 21 7.4V11C21 11.5523 18.7614 12 16 12C13.2386 12 11 11.5523 11 11V7.4C11 6.07452 13.2386 5 16 5ZM12.5 8C12.7761 8 13 7.77614 13 7.5C13 7.22386 12.7761 7 12.5 7C12.2239 7 12 7.22386 12 7.5C12 7.77614 12.2239 8 12.5 8ZM15 6.5C15 6.77614 14.7761 7 14.5 7C14.2239 7 14 6.77614 14 6.5C14 6.22386 14.2239 6 14.5 6C14.7761 6 15 6.22386 15 6.5ZM19.5 8C19.7761 8 20 7.77614 20 7.5C20 7.22386 19.7761 7 19.5 7C19.2239 7 19 7.22386 19 7.5C19 7.77614 19.2239 8 19.5 8ZM18 6.5C18 6.77614 17.7761 7 17.5 7C17.2239 7 17 6.77614 17 6.5C17 6.22386 17.2239 6 17.5 6C17.7761 6 18 6.22386 18 6.5Z" fill="#D49DFF"/>
<rect x="9.5" y="11" width="13" height="2" rx="0.25" fill="#D49DFF"/>
</svg>
